<?xml version="1.0" encoding="utf-8"?>
<svg version="1.1" xmlns:xlink="http://www.w3.org/1999/xlink" width="50px" height="50px" xmlns="http://www.w3.org/2000/svg">
  <g transform="matrix(1 0 0 1 -772 -598 )">
    <path d="M 49.3815104166667 40.7421875  C 49.7938368055556 41.2369791666667  50 41.8229166666667  50 42.5  L 50 47.5  C 50 48.1770833333333  49.7938368055556 48.7630208333333  49.3815104166667 49.2578125  C 48.9691840277778 49.7526041666667  48.4809027777778 50  47.9166666666667 50  L 2.08333333333333 50  C 1.51909722222222 50  1.03081597222222 49.7526041666667  0.618489583333333 49.2578125  C 0.206163194444444 48.7630208333333  0 48.1770833333333  0 47.5  L 0 42.5  C 0 41.8229166666667  0.206163194444444 41.2369791666667  0.618489583333333 40.7421875  C 1.03081597222222 40.2473958333333  1.51909722222222 40  2.08333333333333 40  L 47.9166666666667 40  C 48.4809027777778 40  48.9691840277778 40.2473958333333  49.3815104166667 40.7421875  Z M 49.3815104166667 20.7421875  C 49.7938368055556 21.2369791666667  50 21.8229166666667  50 22.5  L 50 27.5  C 50 28.1770833333333  49.7938368055556 28.7630208333333  49.3815104166667 29.2578125  C 48.9691840277778 29.7526041666667  48.4809027777778 30  47.9166666666667 30  L 2.08333333333333 30  C 1.51909722222222 30  1.03081597222222 29.7526041666667  0.618489583333333 29.2578125  C 0.206163194444444 28.7630208333333  0 28.1770833333333  0 27.5  L 0 22.5  C 0 21.8229166666667  0.206163194444444 21.2369791666667  0.618489583333333 20.7421875  C 1.03081597222222 20.2473958333333  1.51909722222222 20  2.08333333333333 20  L 47.9166666666667 20  C 48.4809027777778 20  48.9691840277778 20.2473958333333  49.3815104166667 20.7421875  Z M 49.3815104166667 0.742187500000002  C 49.7938368055556 1.23697916666666  50 1.82291666666666  50 2.5  L 50 7.5  C 50 8.17708333333333  49.7938368055556 8.76302083333333  49.3815104166667 9.2578125  C 48.9691840277778 9.75260416666666  48.4809027777778 10  47.9166666666667 10  L 2.08333333333333 10  C 1.51909722222222 10  1.03081597222222 9.75260416666666  0.618489583333333 9.2578125  C 0.206163194444444 8.76302083333333  0 8.17708333333333  0 7.5  L 0 2.5  C 0 1.82291666666666  0.206163194444444 1.23697916666666  0.618489583333333 0.742187500000002  C 1.03081597222222 0.24739583333333  1.51909722222222 0  2.08333333333333 0  L 47.9166666666667 0  C 48.4809027777778 0  48.9691840277778 0.24739583333333  49.3815104166667 0.742187500000002  Z " fill-rule="nonzero" fill="#3bb19c" stroke="none" transform="matrix(1 0 0 1 772 598 )" />
  </g>
</svg>