<?xml version="1.0" encoding="utf-8"?>
<svg version="1.1" xmlns:xlink="http://www.w3.org/1999/xlink" width="40px" height="32px" xmlns="http://www.w3.org/2000/svg">
  <g transform="matrix(1 0 0 1 -1249 -13 )">
    <path d="M 36.9308035714286 28.875  C 37.0721726190476 28.7310606060606  37.1428571428571 28.5606060606061  37 28.3636363636364  L 37 10.9090909090909  C 36.6666666666667 11.4545454545455  36.1532738095238 11.9545454545455  35.6026785714286 12.4090909090909  C 31.6145833333333 15.530303030303  28.4449404761905 18.0909090909091  26.09375 20.0909090909091  C 25.3348214285714 20.7424242424242  24.7172619047619 21.25  24.2410714285714 21.6136363636364  C 23.764880952381 21.9772727272727  23.1212797619048 22.344696969697  22.3102678571429 22.7159090909091  C 21.499255952381 23.0871212121212  20.7366071428571 23.2727272727273  20.0223214285714 23.2727272727273  L 20 23.2727272727273  L 19.9776785714286 23.2727272727273  C 19.2633928571429 23.2727272727273  18.500744047619 23.0871212121212  17.6897321428571 22.7159090909091  C 16.8787202380952 22.344696969697  16.235119047619 21.9772727272727  15.7589285714286 21.6136363636364  C 15.2827380952381 21.25  14.6651785714286 20.7424242424242  13.90625 20.0909090909091  C 11.5550595238095 18.0909090909091  8.38541666666667 15.530303030303  4.39732142857143 12.4090909090909  C 3.84672619047619 11.9545454545455  3.33333333333333 11.4545454545455  3 10.9090909090909  L 3 28.3636363636364  C 2.85714285714286 28.5606060606061  2.92782738095238 28.7310606060606  3.06919642857143 28.875  C 3.21056547619048 29.0189393939394  3.37797619047619 29.0909090909091  3.57142857142857 29  L 36.4285714285714 29  C 36.6220238095238 29.0909090909091  36.7894345238095 29.0189393939394  36.9308035714286 28.875  Z M 36.1049107142857 7.46590909090909  C 36.796875 6.36742424242424  37.1428571428571 5.37121212121212  37.1428571428571 4.47727272727273  L 37.1428571428571 4.22727272727273  L 37.1428571428571 3.92045454545455  C 37.1428571428571 3.92045454545455  37.1391369047619 3.82196969696969  37.1316964285714 3.625  C 37.124255952381 3.4280303030303  37.1019345238095 3.33333333333333  37.0647321428571 3.34090909090909  C 37.0275297619048 3.34848484848485  36.9866071428571 3.28030303030303  36.9419642857143 3.13636363636364  C 36.8973214285714 2.99242424242424  36.8303571428571 2.93560606060606  36.7410714285714 2.96590909090909  C 36.6517857142857 2.99621212121212  36.5476190476191 2.97727272727273  36.4285714285714 3  L 3.57142857142857 3  C 3.37797619047619 2.90909090909091  3.21056547619048 2.9810606060606  3.06919642857143 3.125  C 2.92782738095238 3.26893939393939  2.85714285714286 3.43939393939394  2.85714285714286 3.63636363636364  C 2.85714285714286 6.18181818181818  3.95089285714286 8.33333333333333  6.13839285714286 10.0909090909091  C 9.01041666666667 12.3939393939394  11.9940476190476 14.7954545454545  15.0892857142857 17.2954545454545  C 15.1785714285714 17.3712121212121  15.4389880952381 17.594696969697  15.8705357142857 17.9659090909091  C 16.3020833333333 18.3371212121212  16.6443452380952 18.6212121212121  16.8973214285714 18.8181818181818  C 17.1502976190476 19.0151515151515  17.4813988095238 19.2537878787879  17.890625 19.5340909090909  C 18.2998511904762 19.8143939393939  18.6755952380952 20.0227272727273  19.0178571428571 20.1590909090909  C 19.360119047619 20.2954545454545  19.6800595238095 20.3636363636364  19.9776785714286 20.3636363636364  L 20 20.3636363636364  L 20.0223214285714 20.3636363636364  C 20.3199404761905 20.3636363636364  20.639880952381 20.2954545454545  20.9821428571429 20.1590909090909  C 21.3244047619048 20.0227272727273  21.7001488095238 19.8143939393939  22.109375 19.5340909090909  C 22.5186011904762 19.2537878787879  22.8497023809524 19.0151515151515  23.1026785714286 18.8181818181818  C 23.3556547619048 18.6212121212121  23.6979166666667 18.3371212121212  24.1294642857143 17.9659090909091  C 24.5610119047619 17.594696969697  24.8214285714286 17.3712121212121  24.9107142857143 17.2954545454545  C 28.0059523809524 14.7954545454545  30.9895833333333 12.3939393939394  33.8616071428571 10.0909090909091  C 34.6651785714286 9.43939393939394  35.4129464285714 8.56439393939394  36.1049107142857 7.46590909090909  Z M 38.9508928571429 1.06818181818182  C 39.6502976190476 1.78030303030303  40 2.63636363636364  40 3.63636363636364  L 40 28.3636363636364  C 40 29.3636363636364  39.6502976190476 30.219696969697  38.9508928571429 30.9318181818182  C 38.2514880952381 31.6439393939394  37.4107142857143 32  36.4285714285714 32  L 3.57142857142857 32  C 2.58928571428571 32  1.7485119047619 31.6439393939394  1.04910714285714 30.9318181818182  C 0.349702380952381 30.219696969697  0 29.3636363636364  0 28.3636363636364  L 0 3.63636363636364  C 0 2.63636363636364  0.349702380952381 1.78030303030303  1.04910714285714 1.06818181818182  C 1.7485119047619 0.356060606060602  2.58928571428571 0  3.57142857142857 0  L 36.4285714285714 0  C 37.4107142857143 0  38.2514880952381 0.356060606060602  38.9508928571429 1.06818181818182  Z " fill-rule="nonzero" fill="#fefefe" stroke="none" transform="matrix(1 0 0 1 1249 13 )" />
  </g>
</svg>