<?xml version="1.0" encoding="utf-8"?>
<svg version="1.1" xmlns:xlink="http://www.w3.org/1999/xlink" width="80px" height="26px" xmlns="http://www.w3.org/2000/svg">
  <g transform="matrix(1 0 0 1 -422 -405 )">
    <path d="M 491.701232614558 405.5  C 491.701232614558 405.5  493.920278903726 405.86059502199  493.920278903726 405.86059502199  C 493.920278903726 405.86059502199  501.448592068383 418  501.448592068383 418  C 501.448592068383 418  493.920278903726 430.13940497801  493.920278903726 430.13940497801  C 493.920278903726 430.13940497801  491.701232614558 430.5  491.701232614558 430.5  C 491.701232614558 430.5  422.5 430.5  422.5 430.5  C 422.5 430.5  422.5 405.5  422.5 405.5  C 422.5 405.5  491.701232614558 405.5  491.701232614558 405.5  Z " fill-rule="nonzero" fill="#ffffff" stroke="none" />
    <path d="M 491.701232614558 405.5  C 491.701232614558 405.5  493.920278903726 405.86059502199  493.920278903726 405.86059502199  C 493.920278903726 405.86059502199  501.448592068383 418  501.448592068383 418  C 501.448592068383 418  493.920278903726 430.13940497801  493.920278903726 430.13940497801  C 493.920278903726 430.13940497801  491.701232614558 430.5  491.701232614558 430.5  C 491.701232614558 430.5  422.5 430.5  422.5 430.5  C 422.5 430.5  422.5 405.5  422.5 405.5  C 422.5 405.5  491.701232614558 405.5  491.701232614558 405.5  Z " stroke-width="1" stroke="#3bb19c" fill="none" />
  </g>
</svg>