<?xml version="1.0" encoding="utf-8"?>
<svg version="1.1" xmlns:xlink="http://www.w3.org/1999/xlink" width="12px" height="12px" viewBox="824 459  12 12" xmlns="http://www.w3.org/2000/svg">
  <path d="M 830 459  C 833.36 459  836 461.64  836 465  C 836 468.36  833.36 471  830 471  C 826.64 471  824 468.36  824 465  C 824 461.64  826.64 459  830 459  Z " fill-rule="nonzero" fill="#ffffff" stroke="none" />
  <path d="M 830 459.5  C 833.08 459.5  835.5 461.92  835.5 465  C 835.5 468.08  833.08 470.5  830 470.5  C 826.92 470.5  824.5 468.08  824.5 465  C 824.5 461.92  826.92 459.5  830 459.5  Z " stroke-width="1" stroke="#797979" fill="none" />
  <path d="M 830 468  C 828.32 468  827 466.68  827 465  C 827 463.32  828.32 462  830 462  C 831.68 462  833 463.32  833 465  C 833 466.68  831.68 468  830 468  " fill-rule="nonzero" fill="#797979" stroke="none" />
</svg>