<?xml version="1.0" encoding="utf-8"?>
<svg version="1.1" xmlns:xlink="http://www.w3.org/1999/xlink" width="128px" height="97px" xmlns="http://www.w3.org/2000/svg">
  <g transform="matrix(1 0 0 1 -250 -213 )">
    <path d="M 61.6875 70.0660807291667  C 63.2291666666667 68.2768012152778  64 66.0349392361111  64 63.3404947916667  C 64 60.6460503472222  63.8125 58.1726345486111  63.4375 55.9202473958333  C 63.0625 53.6678602430555  62.4479166666667 51.4996744791667  61.59375 49.4156901041667  C 60.7395833333333 47.3317057291667  59.4791666666667 45.6897786458333  57.8125 44.4899088541667  C 56.1458333333333 43.2900390625  54.125 42.6901041666667  51.75 42.6901041666667  C 51.5 42.8585069444444  50.875 43.2374131944444  49.875 43.8268229166667  C 48.875 44.4162326388889  48.09375 44.8688151041667  47.53125 45.1845703125  C 46.96875 45.5003255208333  46.2291666666667 45.8687065972222  45.3125 46.2897135416667  C 44.3958333333333 46.7107204861111  43.5 47.0159505208333  42.625 47.2054036458333  C 41.75 47.3948567708333  40.875 47.4895833333333  40 47.4895833333333  C 39.125 47.4895833333333  38.25 47.3948567708333  37.375 47.2054036458333  C 36.5 47.0159505208333  35.6041666666667 46.7107204861111  34.6875 46.2897135416667  C 33.7708333333333 45.8687065972222  33.03125 45.5003255208333  32.46875 45.1845703125  C 31.90625 44.8688151041667  31.125 44.4162326388889  30.125 43.8268229166667  C 29.125 43.2374131944444  28.5 42.8585069444444  28.25 42.6901041666667  C 25.875 42.6901041666667  23.8541666666667 43.2900390625  22.1875 44.4899088541667  C 20.5208333333333 45.6897786458333  19.2604166666667 47.3317057291667  18.40625 49.4156901041667  C 17.5520833333333 51.4996744791667  16.9375 53.6678602430555  16.5625 55.9202473958333  C 16.1875 58.1726345486111  16 60.6460503472222  16 63.3404947916667  C 16 66.0349392361111  16.7708333333333 68.2768012152778  18.3125 70.0660807291667  C 19.8541666666667 71.8553602430555  21.75 72.75  24 72  L 56 72  C 58.25 72.75  60.1458333333333 71.8553602430555  61.6875 70.0660807291667  Z M 50.03125 40.6376953125  C 52.8020833333333 37.8379991319444  54.1875 34.4594184027778  54.1875 30.501953125  C 54.1875 26.5444878472222  52.8020833333333 23.1659071180556  50.03125 20.3662109375  C 47.2604166666667 17.5665147569444  43.9166666666667 16.1666666666667  40 16.1666666666667  C 36.0833333333333 16.1666666666667  32.7395833333333 17.5665147569444  29.96875 20.3662109375  C 27.1979166666667 23.1659071180556  25.8125 26.5444878472222  25.8125 30.501953125  C 25.8125 34.4594184027778  27.1979166666667 37.8379991319444  29.96875 40.6376953125  C 32.7395833333333 43.4373914930556  36.0833333333333 44.8372395833333  40 44.8372395833333  C 43.9166666666667 44.8372395833333  47.2604166666667 43.4373914930556  50.03125 40.6376953125  Z M 111.4375 64.0983072916667  C 111.8125 63.7194010416667  112 63.2352430555555  112 62.6458333333333  L 112 58.6041666666667  C 112 58.0147569444444  111.8125 57.5305989583333  111.4375 57.1516927083333  C 111.0625 56.7727864583333  110.583333333333 56.5833333333333  110 56  L 74 56  C 73.4166666666667 56.5833333333333  72.9375 56.7727864583333  72.5625 57.1516927083333  C 72.1875 57.5305989583333  72 58.0147569444444  72 58.6041666666667  L 72 62.6458333333333  C 72 63.2352430555555  72.1875 63.7194010416667  72.5625 64.0983072916667  C 72.9375 64.4772135416667  73.4166666666667 64.6666666666667  74 64  L 110 64  C 110.583333333333 64.6666666666667  111.0625 64.4772135416667  111.4375 64.0983072916667  Z M 111.34375 47.8369140625  C 111.78125 47.3948567708333  112 46.8580729166667  112 46.2265625  L 112 42.6901041666667  C 112 42.05859375  111.78125 41.5218098958333  111.34375 41.0797526041667  C 110.90625 40.6376953125  110.375 40.4166666666667  109.75 41  L 74.25 41  C 73.625 40.4166666666667  73.09375 40.6376953125  72.65625 41.0797526041667  C 72.21875 41.5218098958333  72 42.05859375  72 42.6901041666667  L 72 46.2265625  C 72 46.8580729166667  72.21875 47.3948567708333  72.65625 47.8369140625  C 73.09375 48.2789713541667  73.625 48.5  74.25 48  L 109.75 48  C 110.375 48.5  110.90625 48.2789713541667  111.34375 47.8369140625  Z M 111.4375 31.7649739583333  C 111.8125 31.3860677083333  112 30.9019097222222  112 30.3125  L 112 26.2708333333333  C 112 25.6814236111111  111.8125 25.197265625  111.4375 24.818359375  C 111.0625 24.439453125  110.583333333333 24.25  110 25  L 74 25  C 73.4166666666667 24.25  72.9375 24.439453125  72.5625 24.818359375  C 72.1875 25.197265625  72 25.6814236111111  72 26.2708333333333  L 72 30.3125  C 72 30.9019097222222  72.1875 31.3860677083333  72.5625 31.7649739583333  C 72.9375 32.1438802083333  73.4166666666667 32.3333333333333  74 33  L 110 33  C 110.583333333333 32.3333333333333  111.0625 32.1438802083333  111.4375 31.7649739583333  Z M 125.0625 2.96809895833334  C 127.020833333333 4.94683159722222  128 7.32552083333334  128 10.1041666666667  L 128 86.8958333333333  C 128 89.6744791666667  127.020833333333 92.0531684027778  125.0625 94.0319010416667  C 123.104166666667 96.0106336805556  120.75 97  118 97  L 96 97  L 96 90.9375  C 96 90.3480902777778  95.8125 89.8639322916667  95.4375 89.4850260416667  C 95.0625 89.1061197916667  94.5833333333333 88.9166666666667  94 88.9166666666667  L 90 88.9166666666667  C 89.4166666666667 88.9166666666667  88.9375 89.1061197916667  88.5625 89.4850260416667  C 88.1875 89.8639322916667  88 90.3480902777778  88 90.9375  L 88 97  L 40 97  L 40 90.9375  C 40 90.3480902777778  39.8125 89.8639322916667  39.4375 89.4850260416667  C 39.0625 89.1061197916667  38.5833333333333 88.9166666666667  38 88.9166666666667  L 34 88.9166666666667  C 33.4166666666667 88.9166666666667  32.9375 89.1061197916667  32.5625 89.4850260416667  C 32.1875 89.8639322916667  32 90.3480902777778  32 90.9375  L 32 97  L 10 97  C 7.25 97  4.89583333333333 96.0106336805556  2.9375 94.0319010416667  C 0.979166666666667 92.0531684027778  0 89.6744791666667  0 86.8958333333333  L 0 10.1041666666667  C 0 7.32552083333334  0.979166666666667 4.94683159722222  2.9375 2.96809895833334  C 4.89583333333333 0.989366319444435  7.25 0  10 0  L 118 0  C 120.75 0  123.104166666667 0.989366319444435  125.0625 2.96809895833334  Z " fill-rule="nonzero" fill="#3bb19c" stroke="none" transform="matrix(1 0 0 1 250 213 )" />
  </g>
</svg>