<?xml version="1.0" encoding="utf-8"?>
<svg version="1.1" xmlns:xlink="http://www.w3.org/1999/xlink" width="40px" height="32px" xmlns="http://www.w3.org/2000/svg">
  <g transform="matrix(1 0 0 1 -1310 -13 )">
    <path d="M 16.2755102040816 29.2625  C 16.2585034013605 29.3541666666667  16.2755102040816 29.4666666666667  16.3265306122449 29.6  C 16.3265306122449 29.6666666666667  16.3350340136054 29.8333333333333  16.3520408163265 30.1  C 16.3690476190476 30.3666666666667  16.3732993197279 30.5875  16.3647959183673 30.7625  C 16.3562925170068 30.9375  16.3307823129252 31.1333333333333  16.2882653061224 31.35  C 16.2457482993197 31.5666666666667  16.1607142857143 31.7291666666667  16.0331632653061 31.8375  C 15.905612244898 31.9458333333333  15.7312925170068 32  15.5102040816327 32  L 7.3469387755102 32  C 5.32312925170068 32  3.59268707482993 31.2958333333333  2.15561224489796 29.8875  C 0.718537414965986 28.4791666666667  0 26.7833333333333  0 24.8  L 0 7.2  C 0 5.21666666666666  0.718537414965986 3.52083333333333  2.15561224489796 2.1125  C 3.59268707482993 0.704166666666662  5.32312925170068 0  7.3469387755102 0  L 15.5102040816327 0  C 15.7312925170068 0  15.922619047619 0.0791666666666622  16.0841836734694 0.237500000000001  C 16.2457482993197 0.395833333333332  16.3265306122449 0.583333333333332  16.3265306122449 0.800000000000001  C 16.3265306122449 0.866666666666664  16.3350340136054 1.03333333333333  16.3520408163265 1.3  C 16.3690476190476 1.56666666666666  16.3732993197279 1.7875  16.3647959183673 1.9625  C 16.3562925170068 2.1375  16.3307823129252 2.33333333333333  16.2882653061224 2.55  C 16.2457482993197 2.76666666666666  16.1607142857143 2.92916666666666  16.0331632653061 3.0375  C 15.905612244898 3.14583333333333  15.7312925170068 3.2  15.5102040816327 3.2  L 7.3469387755102 3.2  C 6.22448979591837 3.2  5.26360544217687 3.59166666666666  4.46428571428571 4.375  C 3.66496598639456 5.15833333333333  3.26530612244898 6.1  4 7.2  L 4 24.8  C 3.26530612244898 25.9  3.66496598639456 26.8416666666667  4.46428571428571 27.625  C 5.26360544217687 28.4083333333333  6.22448979591837 28.8  7.3469387755102 28.8  L 14.6938775510204 28.8  L 14.9744897959184 28.8  L 15.3061224489796 28.8  C 15.3061224489796 28.8  15.4039115646259 28.8083333333333  15.5994897959184 28.825  C 15.7950680272109 28.8416666666667  15.8928571428571 28.8666666666667  15.8928571428571 28.9  C 15.8928571428571 28.9333333333333  15.9608843537415 28.9791666666667  16.0969387755102 29.0375  C 16.2329931972789 29.0958333333333  16.2925170068027 29.1708333333333  16.2755102040816 29.2625  Z M 39.515306122449 14.875  C 39.8384353741497 15.1916666666667  40 15.5666666666667  40 16  C 40 16.4333333333333  39.8384353741497 16.8083333333333  39.515306122449 17.125  L 25.6377551020408 30.725  C 25.3146258503401 31.0416666666667  24.9319727891156 31.2  24.4897959183673 31.2  C 24.0476190476191 31.2  23.6649659863946 31.0416666666667  23.3418367346939 30.725  C 23.0187074829932 30.4083333333333  22.8571428571429 30.0333333333333  22.8571428571429 29.6  L 22.8571428571429 22  L 11.4285714285714 22  C 10.9863945578231 22.4  10.6037414965986 22.2416666666667  10.280612244898 21.925  C 9.95748299319728 21.6083333333333  9.79591836734694 21.2333333333333  9.79591836734694 20.8  L 9.79591836734694 11.2  C 9.79591836734694 10.7666666666667  9.95748299319728 10.3916666666667  10.280612244898 10.075  C 10.6037414965986 9.75833333333333  10.9863945578231 9.6  11.4285714285714 10  L 22.8571428571429 10  L 22.8571428571429 2.4  C 22.8571428571429 1.96666666666666  23.0187074829932 1.59166666666666  23.3418367346939 1.275  C 23.6649659863946 0.958333333333332  24.0476190476191 0.800000000000001  24.4897959183673 0.800000000000001  C 24.9319727891156 0.800000000000001  25.3146258503401 0.958333333333332  25.6377551020408 1.275  L 39.515306122449 14.875  Z " fill-rule="nonzero" fill="#fefefe" stroke="none" transform="matrix(1 0 0 1 1310 13 )" />
  </g>
</svg>