<?xml version="1.0" encoding="utf-8"?>
<svg version="1.1" xmlns:xlink="http://www.w3.org/1999/xlink" width="212px" height="195px" xmlns="http://www.w3.org/2000/svg">
  <g transform="matrix(1 0 0 1 -575 -168 )">
    <path d="M 137.46875 115.01953125  C 146.762152777778 121.282552083333  153.111111111111 129.534505208333  156.515625 139.775390625  C 157.251736111111 141.891276041667  157.067708333333 143.943684895833  155.963541666667 145.9326171875  C 154.859375 147.921549479167  153.157118055556 149.254557291667  150.856770833333 149.931640625  C 148.556423611111 150.608723958333  146.302083333333 150.439453125  144.09375 149.423828125  C 141.885416666667 148.408203125  140.413194444444 146.800130208333  139.677083333333 144.599609375  C 137.376736111111 137.828776041667  133.12109375 132.3486328125  126.91015625 128.1591796875  C 120.69921875 123.9697265625  113.729166666667 121.875  106 121.875  C 98.2708333333333 121.875  91.30078125 123.9697265625  85.08984375 128.1591796875  C 78.87890625 132.3486328125  74.6232638888889 137.828776041667  72.3229166666667 144.599609375  C 71.5868055555556 146.800130208333  70.1375868055556 148.408203125  67.9752604166667 149.423828125  C 65.8129340277778 150.439453125  63.5815972222222 150.608723958333  61.28125 149.931640625  C 58.8888888888889 149.254557291667  57.140625 147.921549479167  56.0364583333333 145.9326171875  C 54.9322916666667 143.943684895833  54.7482638888889 141.891276041667  55.484375 139.775390625  C 58.8888888888889 129.534505208333  65.2378472222222 121.282552083333  74.53125 115.01953125  C 83.8246527777778 108.756510416667  94.3142361111111 105.625  106 105.625  C 117.685763888889 105.625  128.175347222222 108.756510416667  137.46875 115.01953125  Z M 83.1575520833333 53.5107421875  C 86.6080729166667 56.6845703125  88.3333333333333 60.5143229166667  88.3333333333333 65  C 88.3333333333333 69.4856770833333  86.6080729166667 73.3154296875  83.1575520833333 76.4892578125  C 79.70703125 79.6630859375  75.5434027777778 81.25  70.6666666666667 81.25  C 65.7899305555556 81.25  61.6263020833333 79.6630859375  58.17578125 76.4892578125  C 54.7252604166667 73.3154296875  53 69.4856770833333  53 65  C 53 60.5143229166667  54.7252604166667 56.6845703125  58.17578125 53.5107421875  C 61.6263020833333 50.3369140625  65.7899305555556 48.75  70.6666666666667 48.75  C 75.5434027777778 48.75  79.70703125 50.3369140625  83.1575520833333 53.5107421875  Z M 153.82421875 53.5107421875  C 157.274739583333 56.6845703125  159 60.5143229166667  159 65  C 159 69.4856770833333  157.274739583333 73.3154296875  153.82421875 76.4892578125  C 150.373697916667 79.6630859375  146.210069444444 81.25  141.333333333333 81.25  C 136.456597222222 81.25  132.29296875 79.6630859375  128.842447916667 76.4892578125  C 125.391927083333 73.3154296875  123.666666666667 69.4856770833333  123.666666666667 65  C 123.666666666667 60.5143229166667  125.391927083333 56.6845703125  128.842447916667 53.5107421875  C 132.29296875 50.3369140625  136.456597222222 48.75  141.333333333333 48.75  C 146.210069444444 48.75  150.373697916667 50.3369140625  153.82421875 53.5107421875  Z M 187.294270833333 129.0478515625  C 191.986979166667 119.0185546875  194.333333333333 108.502604166667  194.333333333333 97.5  C 194.333333333333 86.4973958333333  191.986979166667 75.9814453125  187.294270833333 65.9521484375  C 182.6015625 55.9228515625  176.321614583333 47.2900390625  168.454427083333 40.0537109375  C 160.587239583333 32.8173828125  151.201822916667 27.041015625  140.298177083333 22.724609375  C 129.39453125 18.408203125  117.961805555556 16.25  106 16.25  C 94.0381944444444 16.25  82.60546875 18.408203125  71.7018229166667 22.724609375  C 60.7981770833333 27.041015625  51.4127604166667 32.8173828125  43.5455729166667 40.0537109375  C 35.6783854166667 47.2900390625  29.3984375 55.9228515625  24.7057291666667 65.9521484375  C 20.0130208333333 75.9814453125  17.6666666666667 86.4973958333333  17.6666666666667 97.5  C 17.6666666666667 108.502604166667  20.0130208333333 119.0185546875  24.7057291666667 129.0478515625  C 29.3984375 139.0771484375  35.6783854166667 147.7099609375  43.5455729166667 154.9462890625  C 51.4127604166667 162.1826171875  60.7981770833333 167.958984375  71.7018229166667 172.275390625  C 82.60546875 176.591796875  94.0381944444444 178.75  106 178.75  C 117.961805555556 178.75  129.39453125 176.591796875  140.298177083333 172.275390625  C 151.201822916667 167.958984375  160.587239583333 162.1826171875  168.454427083333 154.9462890625  C 176.321614583333 147.7099609375  182.6015625 139.0771484375  187.294270833333 129.0478515625  Z M 197.783854166667 48.5595703125  C 207.261284722222 63.4977213541667  212 79.8111979166666  212 97.5  C 212 115.188802083333  207.261284722222 131.502278645833  197.783854166667 146.4404296875  C 188.306423611111 161.378580729167  175.447482638889 173.206380208333  159.20703125 181.923828125  C 142.966579861111 190.641276041667  125.230902777778 195  106 195  C 86.7690972222222 195  69.0334201388889 190.641276041667  52.79296875 181.923828125  C 36.5525173611111 173.206380208333  23.6935763888889 161.378580729167  14.2161458333333 146.4404296875  C 4.73871527777778 131.502278645833  0 115.188802083333  0 97.5  C 0 79.8111979166666  4.73871527777778 63.4977213541667  14.2161458333333 48.5595703125  C 23.6935763888889 33.6214192708333  36.5525173611111 21.7936197916666  52.79296875 13.076171875  C 69.0334201388889 4.35872395833332  86.7690972222222 0  106 0  C 125.230902777778 0  142.966579861111 4.35872395833332  159.20703125 13.076171875  C 175.447482638889 21.7936197916666  188.306423611111 33.6214192708333  197.783854166667 48.5595703125  Z " fill-rule="nonzero" fill="#3bb19c" stroke="none" transform="matrix(1 0 0 1 575 168 )" />
  </g>
</svg>