<?xml version="1.0" encoding="utf-8"?>
<svg version="1.1" xmlns:xlink="http://www.w3.org/1999/xlink" width="18px" height="18px" xmlns="http://www.w3.org/2000/svg">
  <g transform="matrix(1 0 0 1 -940 -256 )">
    <path d="M 17.5757575757576 13.4545454545454  C 17.8585858585859 13.7373737373738  18 14.0808080808081  18 14.4848484848485  C 18 14.8888888888889  17.8585858585859 15.2323232323232  17.5757575757576 15.5151515151515  L 15.5151515151514 17.5757575757576  C 15.2323232323232 17.8585858585858  14.8888888888889 18  14.4848484848485 18  C 14.0808080808082 18  13.7373737373737 17.8585858585858  13.4545454545454 17.5757575757576  L 9 13.1212121212121  L 4.54545454545456 17.5757575757576  C 4.26262626262629 17.8585858585858  3.91919191919193 18  3.51515151515154 18  C 3.11111111111099 18  2.76767676767678 17.8585858585858  2.4848484848486 17.5757575757576  L 0.424242424242397 15.5151515151515  C 0.141414141414132 15.2323232323232  0 14.8888888888889  0 14.4848484848485  C 0 14.0808080808081  0.141414141414132 13.7373737373738  0.424242424242397 13.4545454545454  L 4.87878787878792 9  L 0.424242424242397 4.54545454545457  C 0.141414141414132 4.26262626262621  0 3.9191919191919  0 3.51515151515151  C 0 3.11111111111113  0.141414141414132 2.76767676767681  0.424242424242397 2.48484848484845  L 2.4848484848486 0.424242424242436  C 2.76767676767678 0.141414141414177  3.11111111111099 0  3.51515151515154 0  C 3.91919191919193 0  4.26262626262629 0.141414141414177  4.54545454545456 0.424242424242436  L 9 4.87878787878786  L 13.4545454545454 0.424242424242436  C 13.7373737373737 0.141414141414177  14.0808080808082 0  14.4848484848485 0  C 14.8888888888889 0  15.2323232323232 0.141414141414177  15.5151515151514 0.424242424242436  L 17.5757575757576 2.48484848484845  C 17.8585858585859 2.76767676767681  18 3.11111111111113  18 3.51515151515151  C 18 3.9191919191919  17.8585858585859 4.26262626262621  17.5757575757576 4.54545454545457  L 13.1212121212121 9  L 17.5757575757576 13.4545454545454  Z " fill-rule="nonzero" fill="#999999" stroke="none" transform="matrix(1 0 0 1 940 256 )" />
  </g>
</svg>